<?xml version="1.0" standalone="no"?>
<!DOCTYPE svg PUBLIC "-//W3C//DTD SVG 20010904//EN"
 "http://www.w3.org/TR/2001/REC-SVG-20010904/DTD/svg10.dtd">
<svg version="1.0" xmlns="http://www.w3.org/2000/svg"
 width="1024.000000pt" height="1024.000000pt" viewBox="0 0 1024.000000 1024.000000"
 preserveAspectRatio="xMidYMid meet">
<metadata>
Created by potrace 1.14, written by Peter Selinger 2001-2017
</metadata>
<g transform="translate(0.000000,1024.000000) scale(0.100000,-0.100000)"
fill="#000000" stroke="none">
<path d="M5170 9384 c-549 -33 -1098 -185 -1596 -443 -752 -390 -1330 -967
-1700 -1696 -463 -915 -546 -1930 -233 -2860 172 -510 445 -953 834 -1354 285
-294 531 -487 870 -686 419 -246 818 -400 1245 -480 646 -122 1281 -93 1875
86 504 152 965 397 1365 724 125 102 394 373 501 505 410 504 669 1080 779
1731 43 259 54 423 47 713 -10 415 -69 746 -199 1126 -120 349 -238 588 -443
900 -428 650 -1006 1132 -1725 1440 -328 140 -699 238 -1047 275 -139 15 -462
25 -573 19z m416 -225 c608 -41 1218 -261 1769 -637 500 -342 924 -831 1206
-1395 248 -494 380 -1045 382 -1592 2 -709 -220 -1427 -616 -1990 -124 -176
-227 -296 -406 -475 -188 -188 -326 -304 -511 -429 -275 -187 -553 -324 -880
-436 -365 -124 -688 -181 -1075 -192 -447 -12 -829 46 -1270 192 -121 40 -239
81 -263 91 l-43 19 42 85 c22 47 138 294 256 550 118 255 224 482 235 503 11
22 17 41 15 44 -6 5 -182 33 -213 33 -16 0 -32 -18 -62 -68 -178 -299 -498
-587 -786 -707 -179 -74 -170 -75 -78 10 47 44 82 85 82 96 0 10 12 26 28 35
170 106 237 157 358 278 172 173 211 227 477 653 103 165 186 271 293 372 82
78 205 154 212 131 2 -6 -12 -43 -32 -83 -25 -53 -58 -96 -123 -162 -114 -118
-313 -400 -299 -424 3 -5 23 -11 44 -15 21 -3 126 -31 233 -61 451 -130 680
-168 994 -167 437 1 819 91 1440 340 110 44 223 87 250 95 76 24 235 54 380
72 72 9 148 21 170 26 79 22 166 68 221 121 67 63 101 118 121 195 17 66 17
72 -32 459 -65 513 -96 646 -220 959 -110 278 -195 455 -555 1145 -139 267
-356 703 -414 834 -31 68 -49 95 -78 117 -48 34 -240 116 -374 159 -206 66
-682 165 -914 191 -104 11 -120 11 -167 -5 -63 -21 -80 -40 -286 -318 l-147
-198 -279 0 c-277 0 -279 0 -284 22 -3 11 -6 163 -7 336 0 294 -2 318 -21 361
-27 61 -92 128 -154 157 -46 22 -63 24 -205 24 -193 0 -231 -11 -311 -90 -56
-55 -81 -105 -94 -182 -6 -38 -6 -38 -52 -38 -93 0 -170 -60 -194 -151 l-12
-45 -58 -1 c-97 -3 -176 -58 -199 -141 -5 -20 -10 -85 -10 -143 l0 -107 -57
-7 c-67 -8 -118 -34 -153 -78 -23 -29 -25 -40 -28 -164 -3 -121 -2 -138 19
-179 31 -64 94 -104 166 -104 l53 0 0 -97 c0 -114 17 -160 73 -210 44 -38 95
-54 152 -47 l41 6 12 -53 c24 -100 95 -162 191 -164 l56 -1 6 -50 c12 -96 81
-184 180 -228 59 -27 64 -28 222 -24 153 3 165 5 213 30 49 26 111 85 134 129
27 49 31 95 30 348 0 144 3 285 6 312 l7 49 284 0 284 0 -17 -32 c-21 -41 -14
-115 14 -156 54 -76 191 -96 252 -37 17 16 30 36 30 45 0 8 -18 47 -41 85
-159 272 -221 379 -229 400 -7 19 -3 35 18 74 29 54 141 201 153 201 8 0 0
-32 -42 -169 -26 -86 -25 -88 21 -93 l40 -4 97 196 c53 108 98 187 100 178 5
-19 -40 -194 -97 -378 -61 -198 -64 -168 36 -336 111 -187 126 -204 170 -204
61 0 104 32 104 77 0 9 -31 64 -69 122 -107 167 -113 181 -97 233 25 80 105
287 131 338 54 107 58 47 14 -200 l-32 -175 100 -160 99 -160 52 -3 c85 -5
193 57 222 129 12 27 17 30 44 25 122 -25 200 -18 363 30 26 7 24 14 87 -276
118 -548 126 -625 87 -850 -32 -188 -40 -452 -17 -590 31 -184 85 -299 186
-400 104 -105 240 -163 435 -185 l60 -7 -28 -24 c-40 -34 -100 -47 -192 -41
-195 13 -381 135 -481 313 -20 35 -39 66 -43 68 -3 3 -37 -2 -74 -10 l-67 -14
-50 38 c-100 76 -316 167 -475 201 -120 25 -225 34 -359 28 -204 -7 -357 -44
-592 -142 l-42 -17 -73 49 c-260 175 -546 269 -854 280 -174 6 -310 -10 -479
-57 l-105 -30 -73 55 c-129 96 -329 190 -512 240 -50 14 -94 25 -98 25 -5 0
-8 -37 -8 -83 l0 -83 73 -23 c144 -46 367 -176 367 -215 0 -13 -66 -46 -91
-46 -6 0 -23 8 -37 19 -46 32 -168 91 -242 116 l-70 24 0 -1130 c0 -701 -4
-1129 -9 -1127 -21 7 -189 201 -285 328 -300 399 -495 836 -596 1340 -84 419
-90 778 -20 1197 172 1022 727 1873 1605 2460 174 117 391 237 571 317 548
243 1111 344 1690 305z m-1404 -802 c24 -18 53 -52 66 -77 l22 -44 0 -876 0
-876 -22 -44 c-13 -24 -40 -58 -61 -74 l-39 -31 -152 0 c-149 0 -153 1 -193
27 -24 16 -49 44 -62 70 -21 44 -21 48 -21 930 0 954 -2 925 52 975 50 47 75
53 225 53 l141 0 44 -33z m-599 -289 c16 -12 17 -64 15 -718 l-3 -705 -44 -3
c-37 -3 -48 1 -63 20 -16 22 -18 66 -18 699 0 666 0 676 20 697 23 24 67 29
93 10z m2236 -93 c225 -40 622 -142 622 -160 0 -4 -15 -14 -33 -21 -18 -6 -47
-17 -63 -24 -27 -11 -59 -6 -285 48 -140 33 -306 68 -367 78 -107 16 -113 18
-113 40 0 32 34 64 68 64 15 0 92 -11 171 -25z m-2477 -121 c10 -21 9 -31 -5
-56 -15 -27 -17 -72 -17 -449 0 -276 4 -427 11 -440 19 -37 2 -59 -44 -59 -45
1 -67 13 -85 47 -9 16 -12 149 -12 472 l0 449 26 31 c22 26 33 31 70 31 38 0
46 -4 56 -26z m2512 -297 c17 -12 17 -17 -3 -92 -11 -44 -19 -80 -18 -81 27
-16 157 -58 223 -71 205 -40 382 38 452 200 18 40 25 47 49 47 39 0 53 -17 53
-64 -1 -123 -131 -248 -301 -290 -123 -30 -301 -13 -418 40 -30 13 -56 22 -58
20 -3 -2 6 -21 20 -43 40 -64 42 -78 8 -102 -16 -12 -35 -21 -43 -21 -13 0
-128 167 -128 186 0 6 16 61 36 124 45 142 80 182 128 147z m-1388 -72 c4 -8
12 -15 19 -15 7 0 15 7 19 15 8 23 55 18 76 -7 l17 -22 12 22 c14 26 33 28 72
5 26 -16 29 -16 47 0 23 21 50 22 73 1 16 -14 20 -14 42 1 34 22 46 1 17 -30
-22 -23 -21 -65 1 -65 14 0 7 -53 -8 -57 -6 -2 -14 5 -18 17 -8 25 -38 23 -43
-2 -2 -9 6 -26 17 -37 24 -24 27 -41 8 -41 -8 0 -19 11 -25 25 -6 14 -20 25
-29 25 -10 0 -26 14 -35 30 -22 38 -36 38 -49 0 -13 -37 -42 -39 -57 -5 -15
32 -52 34 -52 4 0 -12 8 -23 19 -26 35 -9 38 -53 4 -53 -9 0 -13 3 -10 6 13
13 -14 44 -38 44 -16 0 -28 9 -37 28 -7 15 -18 27 -23 27 -5 0 -16 -12 -23
-27 -17 -36 -27 -35 -63 3 -19 21 -30 44 -33 75 -3 25 -2 43 3 40 4 -3 16 3
26 14 21 24 63 26 71 5z m-1389 -74 c-1 -38 -5 -72 -8 -75 -3 -4 -19 0 -35 9
-19 10 -32 11 -39 4 -7 -7 -6 -12 1 -17 6 -4 15 -18 19 -31 l7 -24 -35 27
c-39 30 -53 74 -42 137 l7 39 63 0 64 0 -2 -69z m1293 -60 c0 -6 -4 -13 -10
-16 -5 -3 -10 1 -10 9 0 9 5 16 10 16 6 0 10 -4 10 -9z m138 -54 c4 -20 -25
-34 -40 -19 -15 15 -1 44 19 40 10 -2 19 -11 21 -21z m216 7 c10 -27 7 -34
-19 -34 -20 0 -25 5 -25 25 0 29 34 36 44 9z m-319 -24 c0 -7 -6 -15 -12 -17
-8 -3 -13 4 -13 17 0 13 5 20 13 18 6 -3 12 -11 12 -18z m255 -50 c0 -11 -4
-20 -9 -20 -14 0 -23 18 -16 30 10 17 25 11 25 -10z m110 -6 c0 -8 -4 -14 -10
-14 -5 0 -10 9 -10 21 0 11 5 17 10 14 6 -3 10 -13 10 -21z m-320 7 c0 -6 -4
-13 -10 -16 -5 -3 -10 1 -10 9 0 9 5 16 10 16 6 0 10 -4 10 -9z m108 -3 c-3
-7 -13 -15 -24 -17 -16 -3 -17 -1 -5 13 16 19 34 21 29 4z m-1578 -2 c0 -3 -4
-8 -10 -11 -5 -3 -10 -1 -10 4 0 6 5 11 10 11 6 0 10 -2 10 -4z m3750 -238
c28 -65 32 -131 8 -136 -13 -2 -20 14 -37 84 -11 48 -18 91 -15 96 11 17 22 6
44 -44z m44 -170 c19 -29 38 -112 30 -132 -3 -9 -14 -16 -24 -16 -14 0 -20 13
-29 63 -14 78 -14 107 -1 107 5 0 16 -10 24 -22z m56 -218 c6 -12 10 -35 8
-53 -4 -44 -38 -45 -50 -2 -17 60 16 103 42 55z m30 -509 c5 -29 15 -202 22
-384 14 -399 14 -409 4 -470 -6 -39 -10 -46 -21 -37 -22 19 -63 132 -81 226
-20 108 -15 400 9 530 17 90 47 198 53 191 2 -2 8 -27 14 -56z m632 -110 c30
-49 36 -82 15 -100 -21 -17 -42 6 -72 77 -20 50 -23 67 -14 78 15 18 32 5 71
-55z m88 -184 c24 -38 24 -47 7 -71 -19 -25 -53 -13 -78 27 -23 39 -24 61 -3
81 20 21 48 7 74 -37z m64 -151 c28 -38 32 -57 16 -87 -14 -26 -33 -24 -69 6
-39 33 -47 60 -27 90 23 34 49 31 80 -9z m60 -167 c14 -17 26 -37 26 -45 0
-27 -20 -54 -40 -54 -26 0 -80 48 -80 72 0 62 52 77 94 27z m55 -164 c35 -40
36 -44 19 -80 -15 -34 -38 -32 -81 10 -41 40 -44 51 -21 83 22 31 47 27 83
-13z m-3704 -31 c180 -31 377 -112 459 -190 l29 -27 -23 -19 c-41 -33 -64 -32
-147 7 -217 103 -468 149 -685 126 -136 -15 -301 -56 -505 -126 -154 -52 -362
-109 -371 -101 -9 10 143 106 263 167 328 166 652 220 980 163z m3750 -125
c31 -37 32 -95 2 -113 -16 -9 -25 -4 -58 33 -21 24 -39 47 -39 51 0 14 42 60
55 60 7 0 25 -14 40 -31z m-2035 -74 c147 -30 308 -94 408 -164 74 -52 89 -76
67 -101 -28 -31 -56 -28 -140 16 -184 97 -382 146 -595 147 -208 1 -398 -40
-642 -138 -149 -60 -233 -61 -170 -3 118 109 371 214 607 253 109 18 354 13
465 -10z m810 -688 c0 -17 -90 -94 -125 -107 -15 -6 -43 -8 -61 -4 -29 5 -38
2 -69 -31 -35 -37 -36 -38 -97 -32 -58 5 -63 4 -89 -24 -31 -33 -81 -39 -128
-14 -26 13 -30 13 -46 -5 -31 -34 -76 -43 -129 -25 -45 15 -48 15 -80 -4 -41
-25 -74 -26 -121 -4 -30 15 -40 15 -71 4 -41 -15 -73 -10 -189 26 -106 33
-276 95 -272 100 2 2 60 -7 128 -19 107 -20 159 -23 384 -23 225 0 276 3 383
23 163 29 293 63 427 111 117 43 155 49 155 28z m1335 -33 c30 -30 -6 -95 -75
-133 -74 -41 -223 -38 -237 4 -8 24 25 48 78 56 30 4 88 26 129 48 89 46 85
45 105 25z m-4139 -1581 c-87 -209 -127 -297 -136 -306 -4 -5 -26 4 -49 19
l-41 27 44 81 c82 153 114 202 166 254 28 29 55 52 60 52 5 0 -15 -57 -44
-127z"/>
<path d="M5320 8838 l0 -68 60 0 60 0 0 64 0 64 -60 4 -60 3 0 -67z"/>
<path d="M4952 8883 c-31 -4 -32 -5 -26 -46 12 -95 8 -90 72 -82 31 4 59 8 61
10 2 2 0 31 -4 64 -8 67 -5 66 -103 54z"/>
<path d="M5716 8858 c-3 -13 -6 -44 -6 -70 l0 -48 38 0 c20 0 47 -3 58 -6 20
-5 22 -1 29 61 4 37 5 68 3 70 -1 1 -28 6 -59 9 -53 7 -57 6 -63 -16z"/>
<path d="M4585 8822 c-33 -8 -61 -15 -62 -16 -4 -4 28 -101 36 -109 7 -7 98
10 113 22 8 7 -9 102 -20 112 -4 3 -34 -1 -67 -9z"/>
<path d="M6105 8788 c-16 -50 -22 -110 -11 -113 28 -9 92 -25 102 -25 7 0 17
20 23 44 6 24 13 50 16 58 4 11 -8 19 -46 31 -61 20 -78 21 -84 5z"/>
<path d="M4268 8728 l-58 -20 30 -58 29 -58 56 21 c30 12 55 27 55 34 0 19
-39 103 -47 102 -4 0 -34 -10 -65 -21z"/>
<path d="M6406 8660 c-24 -61 -21 -69 40 -96 31 -14 58 -24 59 -22 1 2 14 27
28 56 l25 54 -52 24 c-70 33 -81 31 -100 -16z"/>
<path d="M6702 8535 c-12 -25 -22 -50 -22 -55 0 -10 98 -70 115 -70 10 0 69
89 63 96 -8 7 -122 74 -128 74 -3 0 -16 -20 -28 -45z"/>
<path d="M6992 8373 c-17 -26 -29 -50 -26 -54 6 -11 93 -69 103 -69 10 0 71
76 71 88 0 8 -100 82 -112 82 -3 0 -19 -21 -36 -47z"/>
<path d="M7262 8198 c-18 -23 -32 -45 -32 -49 0 -11 93 -89 107 -89 6 0 25 18
43 40 l31 39 -42 38 c-74 67 -72 67 -107 21z"/>
<path d="M7506 7976 l-36 -44 52 -46 c29 -25 57 -46 63 -46 6 0 26 16 45 35
l34 35 -35 36 c-18 20 -46 44 -60 55 l-27 19 -36 -44z"/>
<path d="M2787 7752 l-57 -58 38 -37 38 -37 57 58 57 58 -38 37 -38 37 -57
-58z"/>
<path d="M7745 7730 l-39 -40 49 -50 c27 -28 54 -50 60 -50 19 1 76 60 69 73
-14 24 -86 107 -93 107 -4 0 -25 -18 -46 -40z"/>
<path d="M2559 7434 l-43 -67 34 -29 c19 -16 41 -27 49 -26 8 2 34 28 58 58
l43 55 -42 38 c-22 20 -44 37 -48 37 -4 0 -27 -30 -51 -66z"/>
<path d="M7956 7465 l-39 -33 48 -63 c27 -35 50 -65 51 -67 6 -9 84 53 82 64
-4 18 -80 123 -93 128 -6 2 -28 -11 -49 -29z"/>
<path d="M2348 7113 c-30 -46 -58 -99 -58 -111 0 -8 90 -56 95 -50 12 16 75
131 75 138 0 9 -69 60 -81 60 -3 0 -18 -17 -31 -37z"/>
<path d="M8180 7118 c-19 -12 -37 -23 -39 -24 -4 -4 34 -67 66 -111 l24 -33
42 21 c23 12 44 23 45 24 2 2 -13 35 -33 74 -41 78 -51 83 -105 49z"/>
<path d="M8415 6668 c-22 -11 -42 -22 -43 -23 -2 -2 11 -38 30 -79 l33 -76 40
6 c49 8 55 11 55 30 0 21 -60 164 -68 164 -4 -1 -25 -10 -47 -22z"/>
<path d="M2110 6618 c-43 -96 -43 -108 5 -125 22 -7 44 -12 50 -9 10 3 65 133
65 153 0 10 -63 43 -81 43 -6 0 -23 -28 -39 -62z"/>
<path d="M1996 6191 c-4 -6 -13 -44 -20 -85 l-13 -74 30 -6 c56 -11 76 -7 81
17 9 41 26 128 26 131 0 2 -15 6 -32 9 -18 3 -40 8 -49 12 -10 3 -20 2 -23 -4z"/>
<path d="M8553 6187 c-18 -7 -33 -16 -34 -20 -1 -4 4 -39 11 -78 l14 -71 49 6
c27 3 52 8 55 10 4 5 -12 107 -24 149 -6 19 -25 21 -71 4z"/>
<path d="M1927 5774 c-4 -4 -7 -43 -7 -86 l0 -78 54 0 53 0 6 77 c3 43 5 78 4
79 -7 7 -104 13 -110 8z"/>
<path d="M8613 5773 c-48 -5 -47 -2 -37 -102 l7 -61 54 0 54 0 -3 82 c-3 91 0
88 -75 81z"/>
<path d="M8575 5360 c-1 -3 -6 -38 -9 -78 -8 -80 -10 -77 62 -85 48 -6 47 -8
56 100 l6 61 -56 4 c-31 1 -57 1 -59 -2z"/>
<path d="M1924 5278 c4 -45 9 -84 11 -86 2 -2 29 0 60 3 l56 7 -5 39 c-3 22
-9 57 -12 79 l-6 40 -55 0 -56 0 7 -82z"/>
<path d="M2028 4868 c-29 -8 -38 -15 -38 -31 0 -33 36 -141 48 -145 19 -6 92
18 91 31 -1 40 -39 152 -50 154 -8 0 -31 -3 -51 -9z"/>
<path d="M8500 4833 c-6 -21 -13 -56 -16 -78 l-6 -41 51 -16 51 -16 9 36 c24
92 33 133 30 136 -2 2 -27 7 -56 11 l-52 7 -11 -39z"/>
<path d="M8351 4338 c-17 -39 -30 -72 -29 -73 7 -6 88 -45 93 -45 8 0 65 128
65 145 0 11 -66 45 -89 45 -4 0 -22 -32 -40 -72z"/>
<path d="M2186 4367 l-47 -22 36 -72 c20 -40 41 -73 46 -73 11 0 89 39 89 44
0 9 -63 136 -69 140 -4 3 -29 -5 -55 -17z"/>
<path d="M8153 3950 l-42 -60 41 -35 c23 -19 45 -35 49 -35 14 0 88 120 83
134 -4 11 -73 56 -86 56 -2 0 -23 -27 -45 -60z"/>
<path d="M2415 3988 c-11 -6 -30 -20 -42 -31 l-22 -20 39 -58 c22 -32 45 -61
50 -64 6 -4 28 8 50 25 l40 31 -40 59 c-47 70 -50 71 -75 58z"/>
<path d="M7946 3646 c-25 -29 -46 -57 -46 -62 0 -11 65 -64 78 -64 5 0 31 25
58 56 l48 57 -37 33 c-20 19 -41 34 -46 34 -5 0 -30 -24 -55 -54z"/>
<path d="M7740 3414 l-53 -56 41 -41 42 -42 54 54 55 54 -22 27 c-12 15 -32
34 -43 43 -21 16 -24 14 -74 -39z"/>
<path d="M7532 3195 c-29 -26 -52 -52 -52 -57 0 -17 50 -78 63 -78 7 0 37 22
67 49 l55 50 -41 41 -40 41 -52 -46z"/>
<path d="M7273 2998 c-29 -22 -53 -44 -53 -47 0 -10 61 -81 69 -81 5 0 26 14
47 31 22 17 47 37 58 44 17 13 17 15 -15 54 -18 23 -37 41 -43 41 -6 0 -35
-19 -63 -42z"/>
<path d="M7017 2835 c-26 -18 -50 -35 -54 -38 -7 -8 44 -77 63 -84 8 -3 39 11
70 31 l55 37 -32 44 c-18 25 -37 45 -43 44 -6 -1 -33 -16 -59 -34z"/>
<path d="M6738 2697 c-26 -12 -48 -28 -48 -34 0 -19 43 -103 52 -103 8 0 108
48 116 55 8 7 -50 105 -61 104 -6 0 -33 -11 -59 -22z"/>
<path d="M6450 2567 c-30 -11 -57 -22 -59 -23 -5 -4 28 -95 39 -107 7 -8 130
32 130 42 0 16 -39 105 -46 107 -5 1 -34 -8 -64 -19z"/>
<path d="M4221 2525 c-12 -31 -21 -58 -21 -60 0 -4 107 -45 119 -45 12 0 53
98 46 110 -4 7 -107 50 -120 50 -2 0 -13 -25 -24 -55z"/>
<path d="M6165 2485 c-5 -2 -30 -9 -53 -15 -48 -12 -47 -6 -26 -111 l5 -26 62
14 c34 8 63 16 65 17 1 2 -4 29 -11 61 -13 57 -21 68 -42 60z"/>
<path d="M4537 2427 c-9 -30 -17 -57 -17 -60 0 -7 95 -37 116 -37 9 0 33 65
38 104 1 8 -85 43 -110 45 -6 1 -18 -23 -27 -52z"/>
<path d="M4916 2380 c-3 -18 -6 -47 -6 -65 0 -28 4 -33 31 -39 86 -17 99 -7
99 82 0 42 0 42 -37 42 -21 0 -47 3 -59 6 -18 5 -22 0 -28 -26z"/>
<path d="M5732 2403 l-33 -4 7 -57 c3 -31 10 -61 14 -65 9 -10 125 5 123 16
-1 4 -5 32 -8 62 -8 61 -6 60 -103 48z"/>
<path d="M5310 2326 l0 -63 46 -7 c88 -12 84 -14 84 64 l0 70 -65 0 -65 0 0
-64z"/>
<path d="M3867 8252 l-27 -28 0 -863 0 -862 25 -24 c22 -23 31 -25 128 -25 97
0 106 2 131 25 l26 24 0 861 0 862 -29 29 c-29 28 -32 29 -128 29 -96 0 -100
-1 -126 -28z"/>
<path d="M4412 7437 c-16 -19 11 -58 28 -41 14 14 10 46 -6 51 -6 2 -16 -2
-22 -10z"/>
<path d="M4520 7420 c0 -11 2 -20 4 -20 2 0 11 -3 20 -6 12 -5 16 0 16 20 0
19 -5 26 -20 26 -13 0 -20 -7 -20 -20z"/>
<path d="M4627 7434 c-11 -11 5 -34 24 -34 12 0 19 7 19 20 0 19 -28 28 -43
14z"/>
<path d="M4742 7423 c5 -26 38 -29 38 -4 0 15 -6 21 -21 21 -14 0 -19 -5 -17
-17z"/>
<path d="M2590 9091 l0 -71 65 0 65 0 0 65 0 65 -49 0 c-27 0 -56 3 -65 6 -14
5 -16 -4 -16 -65z"/>
<path d="M7980 9085 l0 -65 65 0 65 0 0 65 0 65 -65 0 -65 0 0 -65z"/>
<path d="M1450 8905 l0 -215 55 0 54 0 3 156 3 156 415 2 415 1 3 58 3 57
-476 0 -475 0 0 -215z"/>
<path d="M8290 9060 c0 -43 4 -60 13 -59 6 1 182 1 390 0 l377 -1 0 -365 0
-365 55 0 55 0 0 425 0 425 -445 0 -445 0 0 -60z"/>
<path d="M8290 8835 l0 -60 275 3 275 3 0 -81 0 -80 -27 0 c-64 0 -103 12
-103 31 0 17 -8 19 -70 19 l-70 0 0 -75 c0 -52 4 -77 13 -80 6 -2 66 -6 132
-8 l120 -4 3 -62 3 -61 -181 0 -180 0 0 -55 0 -55 238 0 237 0 2 309 3 309
-118 6 c-64 3 -215 5 -334 4 l-218 -3 0 -60z"/>
<path d="M1650 8694 l0 -196 173 5 c94 3 181 7 192 10 18 3 20 12 20 83 l0 79
-60 0 c-59 0 -60 -1 -65 -30 -4 -26 -10 -30 -39 -33 -19 -2 -50 -1 -68 3 l-33
6 0 79 0 80 245 0 245 0 0 -64 c0 -72 -4 -76 -76 -76 l-44 0 0 -59 0 -58 53
-7 c28 -3 84 -6 124 -6 l72 0 3 190 3 190 -372 0 -373 0 0 -196z"/>
<path d="M8287 8643 c-4 -3 -7 -33 -7 -65 l0 -58 90 0 90 0 0 65 0 65 -83 0
c-46 0 -87 -3 -90 -7z"/>
<path d="M1450 8431 l0 -161 365 0 365 0 0 55 0 55 -307 2 -308 3 -3 98 -3 97
-39 0 c-21 0 -45 3 -54 6 -14 5 -16 -12 -16 -155z"/>
<path d="M1450 8046 c0 -81 4 -86 66 -86 l54 0 0 70 0 70 -60 0 -60 0 0 -54z"/>
<path d="M1670 8041 l0 -61 35 0 35 0 0 55 c0 37 -4 55 -12 55 -7 0 -23 3 -35
6 -22 6 -23 4 -23 -55z"/>
<path d="M8840 8030 l0 -70 54 0 54 0 4 70 3 70 -57 0 -58 0 0 -70z"/>
<path d="M9070 8030 l0 -70 55 0 55 0 0 70 0 70 -55 0 -55 0 0 -70z"/>
<path d="M1450 7728 c0 -18 3 -49 6 -68 l6 -36 56 1 57 0 2 68 2 67 -65 0 -64
0 0 -32z"/>
<path d="M9060 7728 c0 -18 3 -49 6 -68 6 -35 6 -35 57 -34 l52 2 3 66 3 66
-61 0 -60 0 0 -32z"/>
<path d="M1460 3438 l0 -63 58 0 57 0 3 63 3 62 -61 0 -60 0 0 -62z"/>
<path d="M9060 3441 l0 -59 56 -4 c31 -1 58 -1 60 1 2 2 4 31 4 63 l0 58 -60
0 -60 0 0 -59z"/>
<path d="M1462 3103 l3 -77 53 -4 52 -3 0 80 0 81 -55 0 -56 0 3 -77z"/>
<path d="M8840 3030 l0 -150 -97 0 c-54 0 -115 -3 -135 -6 l-38 -7 0 -103 0
-104 59 0 60 0 3 43 c3 38 6 42 32 45 17 2 49 1 73 -3 l43 -6 0 -90 0 -89
-275 0 -275 0 -1 -22 c-1 -13 -2 -40 -3 -60 l-1 -37 332 -3 333 -3 2 373 3
372 -57 0 -58 0 0 -150z"/>
<path d="M9070 2920 l0 -260 55 0 55 0 0 260 0 260 -55 0 -55 0 0 -260z"/>
<path d="M1450 2535 l0 -335 475 0 475 0 0 60 0 60 -417 2 -418 3 -3 207 -2
207 42 3 43 3 12 55 c9 42 9 56 0 62 -7 4 -56 8 -109 8 l-98 0 0 -335z"/>
<path d="M2016 2860 c-1 -3 0 -35 2 -72 l4 -68 64 0 65 0 -3 73 -3 72 -63 0
c-35 0 -65 -2 -66 -5z"/>
<path d="M1768 2706 l5 -155 -59 -3 -59 -3 -3 -57 -2 -58 125 0 125 0 0 215 0
215 -68 0 -69 0 5 -154z"/>
<path d="M2010 2488 l0 -57 195 2 195 2 0 53 0 52 -152 1 c-84 1 -172 2 -195
3 l-43 1 0 -57z"/>
<path d="M9070 2435 l0 -115 -390 0 -390 0 0 -60 0 -60 445 0 445 0 0 175 0
175 -55 0 -55 0 0 -115z"/>
<path d="M2590 2190 l0 -70 65 0 65 0 0 70 0 70 -65 0 -65 0 0 -70z"/>
<path d="M7980 2190 l0 -70 65 0 65 0 0 70 0 70 -65 0 -65 0 0 -70z"/>
<path d="M7885 1386 c-57 -18 -82 -33 -132 -79 -89 -82 -128 -221 -105 -376
19 -132 86 -232 190 -283 47 -23 48 -23 467 -23 409 0 421 1 467 22 66 30 129
92 164 160 28 56 29 62 29 208 0 138 -2 154 -24 198 -30 62 -97 128 -158 159
-48 23 -50 23 -453 25 -306 2 -415 -1 -445 -11z"/>
<path d="M3942 1297 c-68 -28 -133 -92 -169 -165 -23 -47 -28 -70 -27 -132 0
-88 22 -145 79 -209 49 -54 89 -77 165 -97 143 -37 294 35 361 172 28 56 32
76 32 139 0 134 -78 249 -200 295 -73 27 -171 26 -241 -3z"/>
<path d="M5023 1313 c9 -2 25 -2 35 0 9 3 1 5 -18 5 -19 0 -27 -2 -17 -5z"/>
<path d="M5894 1300 c-71 -28 -134 -87 -169 -156 -25 -51 -30 -71 -30 -139 0
-65 5 -90 26 -135 52 -111 162 -183 279 -183 99 0 163 26 231 92 159 157 120
415 -77 511 -69 34 -189 38 -260 10z"/>
<path d="M6900 1311 c-90 -29 -165 -96 -202 -179 -30 -67 -31 -190 -1 -254 30
-66 96 -133 162 -165 148 -73 342 -1 418 155 23 47 28 70 28 132 -1 124 -61
227 -167 285 -44 24 -67 29 -133 32 -44 1 -91 -1 -105 -6z"/>
<path d="M4958 1303 c6 -2 18 -2 25 0 6 3 1 5 -13 5 -14 0 -19 -2 -12 -5z"/>
<path d="M5103 1303 c9 -2 23 -2 30 0 6 3 -1 5 -18 5 -16 0 -22 -2 -12 -5z"/>
<path d="M5234 1241 c20 -22 26 -25 26 -13 0 4 -10 13 -22 21 -23 14 -23 14
-4 -8z"/>
<path d="M5289 1198 c-6 -13 -5 -68 1 -58 5 8 9 6 12 -7 6 -22 -17 -60 -26
-44 -3 5 -20 12 -36 16 -16 4 -29 10 -29 13 4 25 -12 27 -175 27 -111 0 -174
-4 -173 -10 1 -5 -5 -10 -13 -10 -8 0 -18 -4 -22 -10 -5 -7 -14 -6 -27 2 -17
11 -19 9 -17 -23 1 -36 -9 -46 -18 -16 -6 19 -2 56 8 87 4 11 0 8 -9 -8 -9
-15 -13 -32 -10 -37 3 -6 2 -10 -4 -10 -17 0 -34 -82 -28 -138 11 -102 80
-208 166 -252 80 -41 195 -43 282 -6 95 40 173 148 186 256 7 58 -13 150 -33
150 -8 0 -14 7 -14 16 0 8 5 12 11 8 8 -4 7 0 -1 15 -6 12 -16 18 -22 15 -7
-5 -9 -1 -5 9 3 10 4 17 2 17 -3 0 -5 -1 -6 -2z m41 -97 c0 -5 3 -17 7 -27 4
-11 3 -15 -4 -11 -14 9 -24 47 -12 47 5 0 9 -4 9 -9z m-583 -33 c-3 -8 -6 -5
-6 6 -1 11 2 17 5 13 3 -3 4 -12 1 -19z m560 0 c-3 -8 -6 -5 -6 6 -1 11 2 17
5 13 3 -3 4 -12 1 -19z"/>
</g>
</svg>
